<?xml version="1.0" standalone="no"?>
<!DOCTYPE svg PUBLIC "-//W3C//DTD SVG 20010904//EN"
 "http://www.w3.org/TR/2001/REC-SVG-20010904/DTD/svg10.dtd">
<svg version="1.0" xmlns="http://www.w3.org/2000/svg"
 width="1280" height="640" viewBox="0 0 1280.000000 640.000000"
 preserveAspectRatio="xMidYMid meet">
<metadata>
Created by potrace 1.15, written by Peter Selinger 2001-2017
</metadata>
<g transform="translate(0.000000,640.000000) scale(0.100000,-0.100000)"
fill="#3f51b5" stroke="none">
<path d="M13 5918 c-10 -18 12 -28 62 -28 141 0 285 -112 285 -222 0 -37 -25
-96 -53 -127 -49 -53 -159 -101 -231 -101 -31 0 -65 -15 -55 -24 2 -3 36 -10
74 -16 196 -31 311 -171 246 -299 -41 -80 -129 -133 -254 -154 -39 -7 -72 -16
-72 -22 0 -5 30 -13 67 -17 191 -18 319 -160 264 -291 -32 -79 -148 -150 -266
-164 -36 -4 -65 -13 -65 -18 0 -5 27 -13 60 -17 83 -11 122 -25 180 -64 96
-65 127 -152 85 -238 -39 -82 -136 -140 -256 -154 -35 -4 -65 -11 -65 -17 0
-5 31 -15 69 -21 204 -34 320 -172 253 -302 -45 -87 -131 -135 -283 -157 -47
-7 -49 -22 -5 -29 17 -3 50 -8 72 -11 87 -14 180 -77 216 -147 67 -130 -48
-267 -252 -301 -39 -7 -70 -16 -70 -22 0 -5 30 -13 65 -17 120 -14 217 -72
256 -154 42 -86 11 -173 -85 -238 -58 -39 -97 -53 -180 -64 -33 -4 -60 -12
-60 -17 0 -5 27 -13 60 -17 208 -26 331 -166 265 -302 -40 -83 -139 -143 -258
-154 -37 -4 -66 -11 -65 -17 1 -5 33 -15 72 -22 88 -15 147 -41 200 -89 149
-134 47 -326 -194 -364 -104 -17 -103 -25 1 -41 115 -18 205 -73 245 -151 67
-130 -48 -267 -252 -301 -39 -7 -70 -16 -70 -22 0 -5 30 -13 65 -17 166 -19
287 -127 273 -244 -2 -24 -15 -60 -28 -79 -50 -74 -177 -135 -281 -135 -26 0
-48 -4 -48 -10 0 -5 3 -10 8 -10 4 0 2881 -1 6395 -3 6228 -2 6607 0 6321 26
-198 19 -324 170 -254 306 42 84 145 139 289 153 39 5 38 28 -1 28 -104 0
-232 64 -279 139 -51 80 -36 165 40 234 54 49 117 75 199 85 79 9 92 27 25 36
-183 26 -293 113 -293 231 0 116 115 209 283 230 73 8 71 28 -4 36 -121 13
-233 79 -265 156 -58 137 69 279 267 300 77 8 72 26 -10 36 -113 14 -213 73
-251 148 -69 135 51 281 249 306 81 10 90 28 19 36 -167 17 -288 114 -288 231
0 58 17 92 70 140 54 49 120 77 198 83 55 5 82 16 70 28 -2 2 -35 9 -73 15
-160 25 -265 114 -265 223 0 118 114 211 283 232 77 10 69 28 -18 38 -270 30
-359 277 -144 405 41 25 139 52 186 52 23 0 33 5 33 15 0 11 -11 15 -39 15
-59 0 -165 36 -213 73 -75 58 -107 146 -78 221 29 78 146 151 262 164 79 9 86
27 14 36 -170 20 -286 113 -286 230 0 58 17 92 70 140 52 47 114 74 197 86
101 14 101 24 -2 40 -158 24 -265 115 -265 223 0 91 62 163 179 207 28 11 76
20 106 20 31 0 57 5 61 12 4 6 3 13 -2 15 -21 7 -12776 7 -12781 1z m12550
-46 c-83 -44 -143 -131 -143 -207 0 -87 82 -187 182 -222 26 -10 48 -20 48
-23 0 -3 -22 -13 -49 -23 -66 -23 -145 -96 -167 -152 -45 -120 40 -256 190
-305 l39 -13 -46 -17 c-125 -48 -197 -132 -197 -231 0 -80 60 -163 152 -208
33 -17 68 -31 77 -31 9 -1 -7 -11 -36 -23 -119 -50 -193 -138 -193 -229 0 -97
81 -190 201 -231 36 -13 40 -17 24 -22 -179 -59 -265 -192 -206 -320 24 -54
96 -118 157 -140 58 -22 76 -35 47 -35 -11 0 -42 -12 -69 -26 -138 -73 -186
-186 -128 -302 29 -59 96 -114 170 -139 l47 -16 -46 -17 c-125 -48 -197 -132
-197 -231 0 -80 60 -163 152 -208 33 -17 68 -31 77 -32 9 0 -6 -9 -34 -20
-157 -64 -232 -197 -175 -314 11 -22 34 -55 52 -72 39 -37 122 -83 152 -84 12
0 -8 -14 -49 -33 -253 -120 -226 -369 50 -461 16 -5 12 -9 -24 -22 -88 -30
-158 -90 -188 -160 -46 -111 32 -241 182 -302 28 -11 43 -20 34 -20 -9 -1 -44
-15 -77 -32 -92 -45 -152 -128 -152 -208 0 -76 49 -152 126 -197 24 -14 44
-28 44 -30 0 -2 -2786 -4 -6192 -4 l-6192 0 45 28 c133 85 172 206 101 311
-37 53 -83 90 -147 115 l-53 22 64 28 c112 49 187 159 170 249 -15 81 -99 167
-196 200 l-45 15 30 12 c106 40 161 86 196 164 25 55 24 91 -5 152 -28 61 -89
115 -162 145 l-55 22 54 22 c186 75 241 251 117 372 -40 38 -132 92 -160 93
-8 1 3 9 25 18 107 46 166 100 191 174 37 113 -31 226 -172 283 l-53 22 54 22
c112 46 194 156 182 243 -12 86 -102 184 -194 210 -24 7 -43 15 -43 18 0 3 19
11 41 18 93 29 180 118 195 199 17 90 -55 195 -169 248 l-68 32 38 11 c95 28
184 119 198 202 17 100 -62 208 -189 258 l-50 19 40 13 c52 17 80 35 131 84
127 120 74 295 -114 371 l-54 22 55 22 c73 30 134 84 162 145 30 64 30 98 0
161 -33 72 -98 123 -201 160 -17 5 -12 9 25 22 97 33 181 119 196 200 14 76
-51 189 -135 233 -36 19 44 19 6154 19 5872 0 6188 -1 6158 -17z"/>
<path d="M2140 5379 c-188 -21 -374 -76 -535 -156 -147 -74 -252 -150 -375
-273 -199 -198 -311 -399 -372 -668 -21 -95 -22 -111 -26 -1012 -3 -925 0
-1029 33 -1175 50 -215 157 -415 312 -585 221 -243 475 -385 825 -462 l103
-23 4265 0 4265 0 105 23 c320 70 556 196 770 411 240 240 363 501 390 828 13
159 13 1685 -1 1836 -42 488 -337 898 -800 1116 -167 79 -321 120 -519 141
-119 12 -8331 11 -8440 -1z m1350 -2175 l0 -2105 -692 4 c-662 3 -697 4 -786
24 -455 104 -788 353 -972 728 -68 138 -104 264 -120 422 -8 74 -10 393 -7
1003 4 964 3 938 58 1110 157 488 628 851 1181 909 46 4 365 9 711 10 l627 1
0 -2106z m5800 1 l0 -2105 -2860 0 -2860 0 0 2098 c0 1154 3 2102 7 2105 3 4
1290 7 2860 7 l2853 0 0 -2105z m1281 2095 c344 -35 659 -179 882 -405 172
-174 270 -341 334 -571 l28 -99 3 -975 c3 -1035 3 -1044 -44 -1209 -115 -395
-449 -727 -871 -865 -211 -69 -204 -69 -900 -73 l-633 -4 0 2105 0 2106 549 0
c306 0 595 -5 652 -10z"/>
<path d="M4647 4492 c-9 -14 -407 -1045 -407 -1054 0 -5 50 -7 112 -6 l112 3
49 138 50 137 165 -2 166 -3 45 -137 45 -138 114 0 c89 0 113 3 109 13 -5 13
-327 936 -354 1015 l-15 42 -93 0 c-52 0 -96 -3 -98 -8z m138 -443 c25 -73 45
-139 45 -146 0 -10 -26 -13 -105 -13 -58 0 -105 2 -105 4 0 6 101 280 107 289
8 13 11 6 58 -134z"/>
<path d="M5350 3966 l0 -536 193 0 c142 0 209 4 252 16 146 37 249 141 313
313 33 89 42 273 18 375 -34 145 -131 271 -253 329 l-68 32 -227 3 -228 4 0
-536z m383 355 c80 -19 139 -80 178 -182 16 -42 21 -77 21 -159 -1 -170 -53
-294 -147 -347 -34 -19 -55 -23 -137 -23 l-98 0 0 360 0 360 73 0 c39 0 89 -4
110 -9z"/>
<path d="M6250 3965 l0 -535 95 0 95 0 1 358 1 357 63 -195 c35 -107 87 -268
115 -357 l51 -163 99 0 99 0 61 193 c34 105 86 266 115 357 l54 165 0 -357 1
-358 100 0 100 0 0 535 0 535 -134 0 -134 0 -15 -42 c-92 -271 -241 -695 -246
-700 -3 -4 -62 161 -131 367 l-125 375 -132 0 -133 0 0 -535z"/>
<path d="M7440 3965 l0 -535 100 0 100 0 0 535 0 535 -100 0 -100 0 0 -535z"/>
<path d="M7800 4415 l0 -85 178 -2 177 -3 3 -447 2 -448 95 0 95 0 0 450 0
450 170 0 170 0 0 85 0 85 -445 0 -445 0 0 -85z"/>
<path d="M5410 3004 c-76 -20 -129 -54 -188 -119 -103 -112 -148 -255 -139
-440 9 -176 58 -310 150 -412 115 -126 322 -163 481 -88 64 30 154 121 189
191 59 117 72 177 71 339 0 135 -3 157 -26 222 -63 178 -153 269 -305 308 -71
19 -161 18 -233 -1z m215 -183 c52 -24 78 -53 111 -126 25 -53 29 -75 32 -182
7 -200 -36 -334 -126 -398 -38 -26 -53 -30 -105 -30 -158 1 -246 139 -247 383
0 240 85 372 239 372 33 0 73 -8 96 -19z"/>
<path d="M6130 2463 l0 -538 97 2 98 1 0 351 c0 193 2 351 5 350 3 0 96 -156
206 -347 l202 -347 101 -3 101 -3 0 536 0 535 -100 0 -100 0 0 -347 0 -347
-211 347 -212 347 -93 0 -94 0 0 -537z"/>
<path d="M7115 2988 c-3 -7 -4 -248 -3 -536 l3 -522 378 -3 377 -2 0 88 0 87
-280 0 -280 0 0 145 0 145 265 0 265 0 0 85 0 85 -265 0 -265 0 0 130 0 130
280 0 280 0 0 90 0 90 -375 0 c-291 0 -377 -3 -380 -12z"/>
<path d="M10472 4938 c3 -39 5 -42 33 -42 28 0 30 3 33 42 l3 42 -36 0 -36 0
3 -42z"/>
<path d="M10550 4936 c0 -46 0 -46 35 -46 31 0 35 -3 35 -25 0 -18 5 -25 20
-25 15 0 20 -7 20 -27 0 -16 3 -52 6 -80 6 -49 5 -53 -15 -53 -17 0 -21 -6
-21 -30 0 -26 -4 -30 -26 -30 -23 0 -25 -3 -22 -42 3 -40 5 -43 36 -46 30 -3
32 -1 32 27 0 26 4 31 25 31 23 0 25 4 25 40 0 33 3 40 20 40 23 0 24 11 14
109 -6 50 -10 61 -25 61 -15 0 -19 8 -19 40 0 39 -1 40 -34 40 -30 0 -35 4
-38 27 -2 22 -9 27 -35 30 -33 4 -33 4 -33 -41z"/>
<path d="M10070 4915 c0 -33 -2 -35 -32 -35 -32 0 -33 -2 -32 -37 1 -35 4 -38
32 -41 31 -3 32 -2 32 32 0 34 2 36 35 36 34 0 35 1 35 40 0 39 -1 40 -35 40
-33 0 -35 -2 -35 -35z"/>
<path d="M10230 4910 c0 -33 3 -40 20 -40 17 0 20 -7 20 -45 l0 -45 65 0 65 0
0 35 c0 32 2 35 31 35 29 0 30 1 27 43 -3 39 -5 42 -33 42 -27 0 -30 -4 -33
-33 -3 -31 -5 -32 -48 -32 l-44 0 0 40 c0 39 -1 40 -35 40 -34 0 -35 -1 -35
-40z"/>
<path d="M10152 4899 c3 -39 5 -42 36 -44 32 -3 32 -2 32 41 0 44 0 44 -36 44
-35 0 -35 0 -32 -41z"/>
<path d="M9980 4750 c0 -39 1 -40 35 -40 34 0 35 1 35 40 0 39 -1 40 -35 40
-34 0 -35 -1 -35 -40z"/>
<path d="M10300 4720 c0 -39 1 -40 35 -40 34 0 35 1 35 40 0 39 -1 40 -35 40
-34 0 -35 -1 -35 -40z"/>
<path d="M9990 4645 c0 -43 1 -45 30 -45 28 0 30 -3 30 -35 0 -34 1 -35 41
-35 l40 0 -3 43 c-3 39 -5 42 -35 45 -30 3 -33 6 -33 38 0 32 -2 34 -35 34
-35 0 -35 0 -35 -45z"/>
<path d="M10560 4301 c0 -35 3 -39 30 -43 38 -6 40 -3 40 44 0 37 -1 38 -35
38 -34 0 -35 -1 -35 -39z"/>
<path d="M10640 4275 c0 -45 0 -45 35 -45 28 0 35 -4 35 -20 0 -16 7 -20 33
-20 31 0 32 2 32 40 0 38 -1 40 -32 40 -28 0 -33 3 -33 25 0 22 -4 25 -35 25
-35 0 -35 0 -35 -45z"/>
<path d="M10480 4280 c0 -27 -3 -30 -31 -30 -31 0 -31 -1 -27 -45 2 -34 0 -45
-11 -45 -11 0 -13 -13 -8 -60 l5 -60 -34 0 c-34 0 -34 0 -34 -45 0 -45 0 -45
35 -45 31 0 35 3 35 25 0 16 6 25 15 25 11 0 15 -12 15 -45 0 -45 0 -45 35
-45 35 0 35 0 35 45 0 31 -4 45 -13 45 -9 0 -12 10 -9 31 2 17 0 40 -6 52 -18
37 -21 77 -6 77 9 0 14 12 14 35 0 32 2 35 30 35 28 0 30 2 30 40 0 39 -1 40
-35 40 -32 0 -35 -2 -35 -30z"/>
<path d="M10070 4146 c0 -44 1 -46 30 -46 28 0 30 3 30 35 0 19 1 38 3 43 1 4
-13 8 -30 10 -33 3 -33 3 -33 -42z"/>
<path d="M10740 4140 c0 -39 1 -40 35 -40 34 0 35 1 35 40 0 39 -1 40 -35 40
-34 0 -35 -1 -35 -40z"/>
<path d="M10150 4100 c0 -39 1 -40 35 -40 34 0 35 1 35 40 0 39 -1 40 -35 40
-34 0 -35 -1 -35 -40z"/>
<path d="M10250 4040 c0 -39 1 -40 35 -40 34 0 35 1 35 40 0 39 -1 40 -35 40
-34 0 -35 -1 -35 -40z"/>
<path d="M10750 4045 c0 -28 -4 -35 -20 -35 -17 0 -20 -7 -20 -46 0 -45 0 -45
32 -42 29 3 32 6 33 38 0 29 4 36 23 38 18 3 22 10 22 43 0 38 -1 39 -35 39
-33 0 -35 -2 -35 -35z"/>
<path d="M10632 3928 c3 -40 5 -43 36 -46 32 -3 32 -3 32 42 0 46 0 46 -36 46
l-35 0 3 -42z"/>
<path d="M10540 3915 c0 -45 0 -45 35 -45 35 0 35 0 35 45 0 45 0 45 -35 45
-35 0 -35 0 -35 -45z"/>
<path d="M10240 3606 c0 -46 0 -46 36 -46 l35 0 -3 43 c-3 39 -5 42 -35 45
-33 3 -33 3 -33 -42z"/>
<path d="M10058 3590 c3 -25 0 -40 -7 -40 -6 0 -11 16 -11 35 0 33 -2 35 -35
35 -34 0 -35 -1 -35 -40 0 -36 3 -40 25 -40 23 0 25 -4 25 -40 0 -36 3 -40 25
-40 20 0 25 -5 25 -25 0 -22 4 -25 35 -25 34 0 35 1 35 40 0 36 -2 40 -25 40
-21 0 -25 5 -25 30 0 20 5 30 15 30 11 0 15 11 15 40 0 39 -1 40 -33 40 -32 0
-32 -1 -29 -40z"/>
<path d="M10322 3588 c3 -40 5 -43 36 -46 32 -3 32 -3 32 42 0 46 0 46 -36 46
l-35 0 3 -42z"/>
<path d="M10430 3585 c0 -43 1 -45 30 -45 29 0 30 2 30 45 0 43 -1 45 -30 45
-29 0 -30 -2 -30 -45z"/>
<path d="M10500 3585 c0 -45 0 -45 35 -45 35 0 35 0 35 45 0 45 0 45 -35 45
-35 0 -35 0 -35 -45z"/>
<path d="M10580 3590 l0 -40 65 0 65 0 0 40 0 40 -65 0 -65 0 0 -40z"/>
<path d="M10160 3580 c0 -39 1 -40 35 -40 34 0 35 1 35 40 0 39 -1 40 -35 40
-34 0 -35 -1 -35 -40z"/>
<path d="M10518 3043 c-16 -2 -28 -9 -28 -14 0 -5 -16 -9 -35 -9 -35 0 -35 0
-35 -45 0 -43 1 -45 30 -45 16 0 33 7 38 15 6 12 28 16 100 16 l92 0 0 40 c0
34 -3 39 -24 39 -13 0 -43 2 -67 4 -24 2 -56 2 -71 -1z"/>
<path d="M10100 2986 c0 -46 0 -46 36 -46 l35 0 -3 43 c-3 39 -5 42 -35 45
-33 3 -33 3 -33 -42z"/>
<path d="M10690 2955 c0 -45 0 -45 35 -45 35 0 35 0 35 45 0 45 0 45 -35 45
-35 0 -35 0 -35 -45z"/>
<path d="M10775 2846 c6 -71 5 -84 -9 -89 -9 -4 -16 -16 -16 -27 0 -16 -7 -20
-30 -20 -29 0 -30 -2 -30 -45 0 -43 1 -45 30 -45 25 0 30 4 30 25 0 22 4 25
35 25 34 0 35 1 35 41 0 26 6 46 16 53 13 10 14 25 8 89 l-7 77 -34 0 -35 0 7
-84z"/>
<path d="M10090 2875 c0 -45 0 -45 35 -45 35 0 35 0 35 45 0 45 0 45 -35 45
-35 0 -35 0 -35 -45z"/>
<path d="M10370 2880 c0 -38 2 -40 30 -40 28 0 30 2 30 40 0 38 -2 40 -30 40
-28 0 -30 -2 -30 -40z"/>
<path d="M10100 2774 c0 -45 0 -45 33 -41 30 3 32 6 35 45 l3 42 -35 0 c-36 0
-36 0 -36 -46z"/>
<path d="M10368 2770 c4 -37 7 -40 33 -40 27 0 29 3 29 40 0 39 -1 40 -33 40
-32 0 -32 -1 -29 -40z"/>
<path d="M10180 2685 c0 -46 0 -46 33 -43 30 3 32 5 32 43 0 38 -2 40 -32 43
-33 3 -33 3 -33 -43z"/>
<path d="M10100 2680 c0 -38 1 -40 33 -40 31 0 32 2 32 40 0 38 -1 40 -32 40
-32 0 -33 -2 -33 -40z"/>
<path d="M10277 2713 c-4 -3 -7 -24 -7 -45 0 -37 1 -38 35 -38 35 0 35 0 35
45 0 43 -1 45 -28 45 -16 0 -32 -3 -35 -7z"/>
<path d="M10350 2676 c0 -46 0 -46 36 -46 l35 0 -3 43 c-3 39 -5 42 -35 45
-33 3 -33 3 -33 -42z"/>
<path d="M10360 2443 c0 -43 0 -43 36 -43 35 0 35 0 32 42 -3 39 -5 41 -36 42
-31 1 -32 0 -32 -41z"/>
<path d="M10444 2481 c-2 -2 -4 -22 -4 -43 0 -37 1 -38 35 -38 35 0 35 1 35
43 0 40 -1 42 -31 42 -17 0 -33 -2 -35 -4z"/>
<path d="M10554 2481 c-2 -2 -4 -22 -4 -43 0 -37 1 -38 35 -38 35 0 35 0 35
44 0 42 -1 43 -31 42 -17 -1 -32 -3 -35 -5z"/>
<path d="M10630 2435 c0 -45 0 -45 35 -45 35 0 35 0 35 45 0 45 0 45 -35 45
-35 0 -35 0 -35 -45z"/>
<path d="M10270 2407 c0 -41 1 -43 30 -43 29 0 30 2 30 43 0 41 -1 43 -30 43
-29 0 -30 -2 -30 -43z"/>
<path d="M10730 2395 c0 -43 1 -45 30 -45 28 0 30 -3 30 -35 0 -33 2 -35 33
-35 31 0 32 1 31 42 -1 40 -3 43 -28 40 -24 -3 -26 -1 -26 37 0 40 -1 41 -35
41 -35 0 -35 0 -35 -45z"/>
<path d="M10174 2401 c-2 -2 -4 -22 -4 -43 0 -37 1 -38 35 -38 35 0 35 1 35
43 0 40 -1 42 -31 42 -17 0 -33 -2 -35 -4z"/>
<path d="M10130 2235 c0 -45 0 -45 35 -45 35 0 35 0 35 45 0 45 0 45 -35 45
-35 0 -35 0 -35 -45z"/>
<path d="M10810 2220 c0 -33 -3 -40 -20 -40 -17 0 -20 -7 -20 -40 0 -39 1 -40
35 -40 34 0 35 1 35 40 0 33 3 40 20 40 17 0 20 7 20 40 0 39 -1 40 -35 40
-34 0 -35 -1 -35 -40z"/>
<path d="M10180 2124 c0 -44 0 -44 36 -44 35 0 35 0 32 41 -3 39 -5 42 -35 44
-33 3 -33 2 -33 -41z"/>
<path d="M10680 2125 c0 -10 -10 -15 -30 -15 -28 0 -30 -2 -30 -40 0 -39 1
-40 35 -40 24 0 35 5 35 15 0 10 10 15 30 15 28 0 30 2 30 40 0 39 -1 40 -35
40 -24 0 -35 -5 -35 -15z"/>
<path d="M10270 2070 c0 -37 2 -40 29 -40 26 0 29 3 33 40 3 39 3 40 -29 40
-32 0 -33 -1 -33 -40z"/>
<path d="M10350 2055 c0 -45 0 -45 35 -45 35 0 35 0 35 45 0 45 0 45 -35 45
-35 0 -35 0 -35 -45z"/>
<path d="M10457 2093 c-4 -3 -7 -24 -7 -45 0 -37 1 -38 35 -38 35 0 35 0 35
45 0 43 -1 45 -28 45 -16 0 -32 -3 -35 -7z"/>
<path d="M10540 2060 c0 -39 1 -40 35 -40 34 0 35 1 35 40 0 39 -1 40 -35 40
-34 0 -35 -1 -35 -40z"/>
<path d="M10550 1905 c0 -45 0 -45 35 -45 35 0 35 0 35 45 0 45 0 45 -35 45
-35 0 -35 0 -35 -45z"/>
<path d="M10120 1805 c0 -45 0 -45 35 -45 35 0 35 0 35 45 0 45 0 45 -35 45
-35 0 -35 0 -35 -45z"/>
<path d="M10202 1808 c3 -40 5 -43 36 -46 32 -3 32 -3 32 42 0 46 0 46 -36 46
l-35 0 3 -42z"/>
<path d="M10290 1805 c0 -45 0 -45 35 -45 35 0 35 0 35 45 0 45 0 45 -35 45
-35 0 -35 0 -35 -45z"/>
<path d="M10380 1805 c0 -45 0 -45 35 -45 35 0 35 0 35 45 0 45 0 45 -35 45
-35 0 -35 0 -35 -45z"/>
<path d="M10470 1804 l0 -46 58 7 c31 4 78 7 105 6 l47 -1 0 40 0 40 -69 0
-70 0 -4 -37 -4 -38 -1 38 c-2 34 -4 37 -32 37 -29 0 -30 -2 -30 -46z"/>
<path d="M10700 1810 c0 -38 2 -40 30 -40 28 0 30 2 30 40 0 38 -2 40 -30 40
-28 0 -30 -2 -30 -40z"/>
<path d="M10780 1805 c0 -43 1 -45 30 -45 29 0 30 2 30 45 0 43 -1 45 -30 45
-29 0 -30 -2 -30 -45z"/>
<path d="M10550 1720 c0 -39 1 -40 35 -40 34 0 35 1 35 40 0 39 -1 40 -35 40
-34 0 -35 -1 -35 -40z"/>
<path d="M10210 1710 c0 -39 1 -40 35 -40 32 0 35 -2 35 -30 0 -28 3 -30 35
-30 34 0 35 1 35 40 0 39 -1 40 -35 40 -32 0 -35 2 -35 30 0 28 -3 30 -35 30
-34 0 -35 -1 -35 -40z"/>
<path d="M10560 1630 c0 -39 1 -40 35 -40 34 0 35 1 35 40 0 39 -1 40 -35 40
-34 0 -35 -1 -35 -40z"/>
<path d="M10380 1595 c0 -45 0 -45 35 -45 35 0 35 0 35 45 0 45 0 45 -35 45
-35 0 -35 0 -35 -45z"/>
<path d="M10563 1505 l-2 -75 34 0 35 0 0 75 0 75 -32 0 -33 0 -2 -75z"/>
<path d="M10480 1520 c0 -39 1 -40 35 -40 34 0 35 1 35 40 0 39 -1 40 -35 40
-34 0 -35 -1 -35 -40z"/>
</g>
</svg>
